<svg xmlns="http://www.w3.org/2000/svg" viewBox="0 0 72 72"><defs><style>.a{fill:#f47939;}.b{fill:#414042;}</style></defs><title>stadium foods</title><path class="a" d="M58.64 16.92c-2.32-2.17-6.64-4.33-13.86-2.22-4.13 1.2-7.39 4.46-9.7 9.68a1 1 0 0 1-1.3.52c-5.28-2.22-9.89-2.34-13.69-.36-6.71 3.47-8.35 8-8.54 11.15-.38 6.2 4.45 11.52 6.3 12.76l.43.31a16.72 16.72 0 0 0 11.59 3.77 1 1 0 0 1 1 1c.05 2.92.19 4.82.2 4.89a3.19 3.19 0 1 0 6.36-.47c-.13-1.81-.21-3.72-.23-5.67a1 1 0 0 1 .74-1 56.51 56.51 0 0 0 6.24-2.1h.13a57.22 57.22 0 0 0 5.85-2.72 1 1 0 0 1 1.21.2c2.2 2.34 3.63 4.03 3.77 4.21a3.19 3.19 0 1 0 4.94-4c-.31-.38-1.46-1.76-3.22-3.69a1 1 0 0 1 .06-1.41 16.84 16.84 0 0 0 5.81-10.61v-.1c0-.19.06-.36.09-.51.49-2.17.36-9.39-4.18-13.63zM13.57 32.63a.66.66 0 1 1 .66-.63.66.66 0 0 1-.66.63zm3.13 8.53a.66.66 0 1 1 .66-.66.66.66 0 0 1-.66.66zM31.24 26a.66.66 0 1 1-.66.66.66.66 0 0 1 .66-.66zm-8.13-.84a.66.66 0 1 1-.66.66.66.66 0 0 1 .66-.68zm4.58 22.54a.66.66 0 1 1 .66-.7.66.66 0 0 1-.66.7zM31 45.21a1 1 0 0 1-1 .95h-.4a11 11 0 0 1-7.4-2.43c-.28-.21-.53-.4-.73-.53-.89-.66-3.82-4-3.55-7.24.18-2.17 1.89-4.11 5.09-5.76a5.24 5.24 0 0 1 .49-.2c2.17-.86 5.05-.48 8.56 1.13a1 1 0 0 1 .56 1.12 69.89 69.89 0 0 0-1.12 6.91c-.21 1.89-.37 3.94-.5 6.05zm.77 10.67a.66.66 0 1 1 .66-.66.66.66 0 0 1-.64.66zm1.33-20.5a.66.66 0 1 1 .66-.66.66.66 0 0 1-.65.66zm1.64 10a.66.66 0 1 1 .66-.66.66.66 0 0 1-.65.64zM57 18.23a.66.66 0 1 1-.66.66.66.66 0 0 1 .66-.66zm-12.13-.84a.66.66 0 1 1-.66.66.66.66 0 0 1 .67-.66zm-8.05 11.33a.66.66 0 1 1 .66-.66.66.66 0 0 1-.66.66zm8.56 12.52a1 1 0 0 1-.57.75 61.89 61.89 0 0 1-6 2.39 1 1 0 0 1-.93-.16 1 1 0 0 1-.38-.87c.19-2.37.45-4.63.8-6.72a1 1 0 0 1 1.6-.63c.8.61 1.62 1.27 2.44 2s1.8 1.55 2.73 2.39a1 1 0 0 1 .31.85zm-.6-6.71a.66.66 0 1 1 .66-.66.66.66 0 0 1-.67.67zM51 39.28a.66.66 0 1 1 .66-.66.66.66 0 0 1-.66.66zm1.68 6.26a.66.66 0 1 1 .66-.66.66.66 0 0 1-.71.66zm4.49-16.35a.65.65 0 0 1-.53-.19v.14c-.07.31-.12.62-.18 1a11.12 11.12 0 0 1-4 7.16 1 1 0 0 1-1.36 0c-1.53-1.46-3.06-2.83-4.54-4.07A69.62 69.62 0 0 0 41 28.91a1 1 0 0 1-.37-1.19c1.53-3.87 3.53-6.19 5.94-6.9 3.47-1 6-.77 7.66.68 1.93 1.73 2.43 4.82 2.47 6.56a.65.65 0 1 1 .42 1.13zm2.26-4.66a.66.66 0 1 1 .57-.65.66.66 0 0 1-.62.65z"/><circle class="b" cx="59.16" cy="23.5" r=".66"/><path class="b" d="M32.65 60a5 5 0 0 1-5-4.63c0-.29-.12-1.69-.17-3.81a17.65 17.65 0 0 1-11.22-3.94l-.1-.08-.3-.22C13.55 45.71 8.59 40 9 33.35c.21-3.54 2-8.54 9.21-12.27C22.16 19 26.81 19 32.05 21c2.42-5 5.82-8.21 10.1-9.46 7.81-2.26 12.54.15 15.13 2.57 4.87 4.55 5.19 12.1 4.59 14.85 0 .12 0 .26-.07.41A17.73 17.73 0 0 1 56.35 40c1.35 1.5 2.22 2.55 2.49 2.87a5 5 0 0 1-.71 7 5 5 0 0 1-7-.71s-1.14-1.38-3-3.41c-1.59.82-3.33 1.62-5.19 2.36S39.19 49.5 37.46 50c0 1.57.1 3.09.21 4.52a5 5 0 0 1-3.13 5A5 5 0 0 1 33 60h-.35zm1.48-1.28zm-5.66-9.15a1 1 0 0 1 1 1c0 2.61.16 4.35.19 4.67a3 3 0 1 0 6-.45c-.13-1.71-.2-3.53-.22-5.42a1 1 0 0 1 .74-1 54.47 54.47 0 0 0 6-2h.1a54.13 54.13 0 0 0 5.61-2.61 1 1 0 0 1 1.21.2c2.22 2.38 3.59 4.05 3.6 4.07a3 3 0 0 0 2 1.09 3 3 0 0 0 2.63-4.88c-.3-.36-1.39-1.67-3.08-3.52a1 1 0 0 1 .06-1.41 16.06 16.06 0 0 0 5.53-10.12c0-.27.07-.44.11-.59.45-2 .32-8.91-4-13-2.21-2.07-6.29-4.11-13.2-2.11-3.93 1.14-7 4.25-9.24 9.23a1 1 0 0 1-1.3.52c-5-2.11-9.42-2.23-13-.35-6.39 3.3-8 7.59-8.14 10.61-.36 5.92 4.28 11 6 12.16l.38.28.03.06a15.8 15.8 0 0 0 11 3.54zm-.26-6a10.65 10.65 0 0 1-7.11-2.37c-.26-.2-.5-.38-.69-.51-.86-.64-3.67-3.81-3.41-7 .17-2.09 1.82-4 4.89-5.54l.46-.15c2.08-.83 4.85-.47 8.22 1.08a1 1 0 0 1 .56 1.12c-.44 2-.79 4.23-1.06 6.6-.21 1.85-.37 3.8-.47 5.8a1 1 0 0 1-1 .95h-.39zM23.1 29.84l-.29.16c-1.67.86-3.68 2.24-3.82 3.93-.18 2.22 2.1 4.81 2.58 5.17.18.12.45.32.74.54a8.44 8.44 0 0 0 5.35 1.92c.1-1.71.25-3.38.43-5 .24-2.12.55-4.14.93-6-2.49-1.03-4.53-1.28-5.92-.72zm13.61 12a1 1 0 0 1-1-1.08c.18-2.26.43-4.43.76-6.43a1 1 0 0 1 1.6-.63q1.14.88 2.33 1.87c.85.71 1.73 1.48 2.61 2.29a1 1 0 0 1-.25 1.65A59.13 59.13 0 0 1 37 41.83a1 1 0 0 1-.29.05zm1.49-5.5c-.13 1-.25 2-.35 3 .88-.33 1.81-.7 2.68-1.07-.47-.42-.94-.82-1.4-1.21zm11.17-1.13a1 1 0 0 1-.7-.21c-1.47-1.4-2.93-2.71-4.33-3.89-1.82-1.55-3.6-2.91-5.34-4.11a1 1 0 0 1-.37-1.19c1.47-3.71 3.39-5.93 5.7-6.62 3.32-1 5.8-.74 7.37.66 2.36 2.11 2.5 6.32 2.33 7.33-.07.3-.11.59-.17.92A10.79 10.79 0 0 1 50 35a1 1 0 0 1-.64.26zm-8.52-9.41c1.55 1.09 3.16 2.34 4.79 3.71 1.21 1 2.46 2.13 3.73 3.32a8.45 8.45 0 0 0 2.57-5.07c.06-.37.12-.69.18-1 .11-.66-.12-4-1.7-5.45-1.26-1.13-3.67-.75-5.47-.23-1.54.52-2.95 2.14-4.11 4.77z"/><circle class="b" cx="16.48" cy="40.13" r=".66"/><circle class="b" cx="32.89" cy="34.35" r=".66"/><circle class="b" cx="27.47" cy="46.67" r=".66"/><circle class="b" cx="36.6" cy="27.69" r=".66"/><circle class="b" cx="44.67" cy="17.67" r=".66"/><circle class="b" cx="56.79" cy="18.51" r=".66"/><circle class="b" cx="56.9" cy="28.16" r=".66"/><circle class="b" cx="50.73" cy="38.25" r=".66"/><circle class="b" cx="34.53" cy="44.33" r=".66"/><circle class="b" cx="31.57" cy="54.85" r=".66"/><circle class="b" cx="52.41" cy="44.51" r=".66"/><circle class="b" cx="44.56" cy="33.51" r=".66"/><circle class="b" cx="31.02" cy="26.26" r=".66"/><circle class="b" cx="22.89" cy="25.42" r=".66"/><circle class="b" cx="13.35" cy="31.6" r=".66"/></svg>