<?xml version="1.0" encoding="utf-8"?>
<!-- Generator: Adobe Illustrator 18.1.1, SVG Export Plug-In . SVG Version: 6.00 Build 0)  -->
<!DOCTYPE svg PUBLIC "-//W3C//DTD SVG 1.1//EN" "http://www.w3.org/Graphics/SVG/1.1/DTD/svg11.dtd">
<svg version="1.1" id="Layer_1" xmlns="http://www.w3.org/2000/svg" xmlns:xlink="http://www.w3.org/1999/xlink" x="0px" y="0px"
	 viewBox="0 0 72 72" enable-background="new 0 0 72 72" xml:space="preserve">
<polygon fill="#FFFFFF" stroke="#000000" stroke-width="2" stroke-miterlimit="10" points="65.9,53.3 36,70.6 6.1,53.3 6.1,18.7 
	36,1.4 65.9,18.7 "/>
<path fill="#FFFFFF" d="M36,56.9c-11.5,0-20.9-9.4-20.9-20.9c0-11.5,9.4-20.9,20.9-20.9c11.5,0,20.9,9.4,20.9,20.9
	C56.9,47.5,47.5,56.9,36,56.9"/>
<path d="M36,16.2c11,0,19.8,8.9,19.8,19.8c0,11-8.9,19.8-19.8,19.8C25,55.8,16.2,47,16.2,36C16.2,25,25,16.2,36,16.2 M36,14
	c-12.1,0-22,9.9-22,22s9.9,22,22,22c12.1,0,22-9.9,22-22S48.1,14,36,14"/>
<polygon points="54.1,33.9 45.7,33.9 53.3,30.5 51.7,26.8 45.3,29.6 50.2,24.7 47.3,21.8 42,27.1 44.9,20.2 41.1,18.6 38.1,25.8 
	38.1,17.9 33.9,17.9 33.9,26.3 30.5,18.7 26.8,20.3 29.6,26.7 24.7,21.8 21.8,24.7 27.1,30 20.2,27.1 18.6,30.9 25.8,33.9 
	17.9,33.9 17.9,38.1 26.3,38.1 18.7,41.5 20.3,45.2 26.7,42.4 21.8,47.3 24.7,50.2 30,44.9 27.1,51.8 30.9,53.4 33.9,46.2 
	33.9,54.1 38.1,54.1 38.1,45.7 41.5,53.3 45.2,51.7 42.4,45.3 47.3,50.2 50.2,47.3 44.9,42 51.8,44.9 53.4,41.1 46.2,38.1 
	54.1,38.1 "/>
<polygon fill="none" stroke="#FF0000" stroke-width="2" stroke-miterlimit="10" points="61.3,50.6 36,65.3 10.7,50.6 10.7,21.4 
	36,6.7 61.3,21.4 "/>
</svg>
