<?xml version="1.0" encoding="utf-8"?>
<!-- Generator: Adobe Illustrator 16.0.4, SVG Export Plug-In . SVG Version: 6.00 Build 0)  -->
<!DOCTYPE svg PUBLIC "-//W3C//DTD SVG 1.1//EN" "http://www.w3.org/Graphics/SVG/1.1/DTD/svg11.dtd" [
	<!ENTITY ns_flows "http://ns.adobe.com/Flows/1.0/">
	<!ENTITY ns_extend "http://ns.adobe.com/Extensibility/1.0/">
	<!ENTITY ns_ai "http://ns.adobe.com/AdobeIllustrator/10.0/">
	<!ENTITY ns_graphs "http://ns.adobe.com/Graphs/1.0/">
]>
<svg version="1.1" id="Layer_1" xmlns:x="&ns_extend;" xmlns:i="&ns_ai;" xmlns:graph="&ns_graphs;"
	 xmlns="http://www.w3.org/2000/svg" xmlns:xlink="http://www.w3.org/1999/xlink" xmlns:a="http://ns.adobe.com/AdobeSVGViewerExtensions/3.0/"
	 x="0px" y="0px" width="72px" height="72px" viewBox="0 0 72 72" enable-background="new 0 0 72 72" xml:space="preserve">
<path d="M70.41,70.28V50.71c0,0-12.43-48.74-34.18-48.74c-20.5,0-34.66,50.58-34.66,50.58v17.72H70.41z"/>
<path fill="#787878" d="M21.53,36.26c-0.03,0.04-0.07,0.08-0.1,0.12C21.47,36.34,21.5,36.3,21.53,36.26"/>
<path fill="#787878" d="M39.27,39.26c-0.16-0.92-0.21-1.58-0.28-2.08c-0.51-0.1-2.16-0.1-2.16-0.1h-1.07c0,0-1.88,0-2.26,0.12
	c-0.29,0.1-2.83,4.42-4.92,7.16c0.29,1.61,1.01,7.76,1.92,12.32c0.43,2.15,1,3.45,1.51,4.25c0.16-0.01,0.29-0.03,0.35-0.06
	c0.63-0.25,1.52-0.69,3.84-0.69h0.17c0.44,0,0.82,0.02,1.17,0.05c2.14-0.28,3.07-2.96,3.51-6.07c0.46-3.22,1.44-8.92,1.44-9.09
	C42.5,44.88,39.73,41.92,39.27,39.26"/>
<path fill="#FF0000" d="M39.09,37.2c-0.02-0.01-0.07-0.01-0.1-0.02c0.07,0.5,0.12,1.16,0.28,2.08c0.46,2.67,3.22,5.62,3.22,5.8
	c0,0.17-0.98,5.87-1.44,9.09c-0.44,3.11-1.38,5.79-3.51,6.07c1.47,0.12,2.17,0.44,2.67,0.64c0.31,0.13,1.67,0.13,3.04-0.01
	c0.43-0.16,0.76-0.31,0.91-0.43c0.69-0.58,2.82-9.79,3.22-11.63c0.1-0.45,0.11-0.79,0.05-1.08c-0.51-0.43-1.12-0.94-1.83-1.54
	C43.54,44.42,39.47,37.33,39.09,37.2"/>
<path fill="#FF0000" d="M36.88,20.17h-0.75v1.27h0.75c0.11,0,1.69-0.01,3.76-0.31c-0.69-0.3-1.66-0.67-2.51-1.01
	C37.37,20.16,36.89,20.17,36.88,20.17"/>
<path fill="#FF0000" d="M43.8,19.15c-2.15,0.64-4.34,0.88-5.67,0.97c0.85,0.35,1.82,0.71,2.51,1.01c1.47-0.21,3.18-0.58,4.81-1.19
	C44.89,19.68,44.32,19.4,43.8,19.15"/>
<path fill="#FF0000" d="M46.36,27.09c-0.46,0.14-0.92,0.28-1.34,0.44c-1.63,0.62-3.4,0.97-4.87,1.17c1.05,0.2,3.25,0.35,3.77,0.53
	c0.51-0.15,1.03-0.31,1.53-0.5c1.29-0.49,2.57-0.8,3.71-0.94c-0.1-0.04-0.2-0.07-0.33-0.11C47.95,27.42,47.05,27.24,46.36,27.09"/>
<path fill="#FF0000" d="M36.88,26.03h-0.75v1.27h0.75c0.14,0,2.51-0.01,5.29-0.58c-0.96-0.26-2.41-0.54-3.37-0.8
	C37.66,26.02,36.89,26.03,36.88,26.03"/>
<path fill="#FF0000" d="M47.17,25.24c-0.08-0.02-0.15-0.03-0.24-0.05c-0.99-0.18-1.7-0.35-2.2-0.49c-2.1,0.75-4.37,1.08-5.93,1.21
	c0.96,0.26,2.41,0.54,3.37,0.8c1.07-0.22,2.19-0.51,3.28-0.93C46.03,25.57,46.6,25.4,47.17,25.24"/>
<path fill="#FF0000" d="M36.88,23.1h-0.75v1.27h0.75c0.13,0,2.22-0.01,4.77-0.48c-0.85-0.27-2.34-0.53-3.4-0.86
	C37.42,23.09,36.89,23.1,36.88,23.1"/>
<path fill="#FF0000" d="M36.88,28.96h-0.75v1.27h0.75c0.17,0,3.58-0.01,7.04-1c-0.52-0.18-2.72-0.33-3.77-0.53
	C38.28,28.95,36.9,28.96,36.88,28.96"/>
<path fill="#FF0000" d="M46.5,22.51c-0.24-0.04-0.51-0.09-0.84-0.13c-0.79-0.1-1.38-0.2-1.83-0.31c-2.1,0.63-4.25,0.87-5.59,0.97
	c1.06,0.33,2.55,0.59,3.4,0.86c1.22-0.22,2.54-0.55,3.8-1.03C45.8,22.73,46.15,22.61,46.5,22.51"/>
<path d="M39.62,41.04h-6.71c-0.2,0-0.36-0.16-0.36-0.36c0-0.2,0.16-0.36,0.36-0.36h6.71c0.2,0,0.36,0.16,0.36,0.36
	C39.98,40.88,39.82,41.04,39.62,41.04"/>
<path d="M40.31,42.53h-8.2c-0.21,0-0.37-0.16-0.37-0.36c0-0.2,0.17-0.36,0.37-0.36h8.2c0.21,0,0.37,0.16,0.37,0.36
	C40.68,42.37,40.52,42.53,40.31,42.53"/>
<path fill="#C8C8C8" d="M49.05,48.35c-0.1-1.11-0.89-2.73-1.97-3.5c-1.08-0.76-1.24-0.16-1.05,0.22s1.24,1.14,1.37,2.77
	c0.02,0.21,0.03,0.41,0.04,0.59c-0.02,0.12-0.02,0.23-0.05,0.37c-0.4,1.84-2.53,11.05-3.22,11.63c-0.15,0.13-0.48,0.28-0.91,0.44
	c1.38-0.13,2.76-0.4,3.05-0.81c0.56-0.82,2.7-10.11,2.7-10.61c0-0.02-0.01-0.04-0.01-0.06C49.05,49.01,49.07,48.65,49.05,48.35"/>
<path d="M45.03,58.96c-0.03,0-0.06,0-0.09-0.01c-0.19-0.05-0.31-0.24-0.26-0.43c0.75-3.02,1.87-7.54,2-8.22
	c-0.18-0.31-1.14-1.31-1.92-2.12c-1.03-1.08-2.2-2.3-2.89-3.2c-1.24-1.62-2.7-4.56-3.1-5.37h-5.14c-0.2,0-0.36-0.16-0.36-0.36
	s0.16-0.36,0.36-0.36h5.59l0.1,0.2c0.02,0.04,1.74,3.66,3.11,5.44c0.67,0.87,1.82,2.07,2.84,3.14c1.91,1.99,2.17,2.31,2.13,2.63
	c-0.05,0.39-1.83,7.56-2.03,8.37C45.33,58.85,45.19,58.96,45.03,58.96"/>
<path fill="#C8C8C8" d="M46.36,27.09c0.7,0.15,1.6,0.33,2.47,0.58c0.12,0.04,0.23,0.07,0.33,0.11c1.48-0.18,2.71-0.08,3.35,0.38
	c0.17,0.12,0.29,0.27,0.37,0.44c0.27,0.22,0.76,0.61,1.34,1.16V29.1v-1.45c-0.12-0.77,0.51-2.98-2.28-6.41
	c-2.8-3.43-3.68-3.32-5.63-2.93c-0.44,0.13-0.87,0.27-1.28,0.43c-0.4,0.15-0.8,0.28-1.21,0.4c0.51,0.25,1.08,0.53,1.64,0.79
	c0.72-0.27,1.43-0.48,2.13-0.64c0.52,0.43,1.01,0.88,1.5,1.35c-1.39,0.17-2.83,0.56-4.05,1.03c-0.39,0.15-0.78,0.28-1.18,0.4
	c0.44,0.1,1.03,0.2,1.83,0.31c0.33,0.04,0.61,0.09,0.84,0.13c1.35-0.42,2.64-0.65,3.72-0.67c0.51,0.57,1.01,1.15,1.47,1.76
	c-1.96-0.36-4.64,0.23-6.68,1c-0.1,0.04-0.19,0.07-0.29,0.1c0.5,0.14,1.21,0.31,2.2,0.49c0.09,0.02,0.16,0.03,0.24,0.05
	c2.33-0.62,4.43-0.66,5.33-0.02c0.32,0.23,0.47,0.53,0.47,0.95v0.82C51.4,26.07,48.69,26.4,46.36,27.09"/>
<path d="M65.99,62.81c-0.51,0.17-9.32-19.66-11.36-26.78c-2.03-7.12-2.54-14.23-8.98-18.13c-6.44-3.9,2.2-4.41,4.91-3.39
	c2.71,1.02,5.42,6.1,5.76,8.98c0.34,2.88,3.05,10.34,4.41,13.73c1.36,3.39,5.08,17.97,5.08,17.97L65.99,62.81z"/>
<path fill="#787878" d="M27.05,19.93c3.91,1.49,8.38,1.5,8.57,1.5h0.75v-1.27h-0.75c-0.04,0-4.44-0.02-8.14-1.42
	c-0.4-0.15-0.83-0.29-1.28-0.43c-1.95-0.39-2.83-0.5-5.63,2.93c-2.8,3.43-2.16,5.64-2.28,6.41v1.41c0.51-0.2,0.95-0.31,1.31-0.38
	c0.07-0.21,0.2-0.39,0.4-0.53c1.12-0.8,4.09-0.56,7.06,0.57c3.91,1.49,8.38,1.5,8.57,1.5h0.75v-1.27h-0.75
	c-0.04,0-4.44-0.02-8.14-1.42c-2.54-0.97-6.07-1.64-7.95-0.54v-0.82c0-0.42,0.15-0.72,0.47-0.95c1.12-0.8,4.09-0.56,7.06,0.57
	c3.91,1.49,8.38,1.5,8.57,1.5h0.75v-1.27h-0.75c-0.04,0-4.44-0.02-8.14-1.42c-2.04-0.78-4.72-1.37-6.68-1
	c0.46-0.61,0.96-1.19,1.47-1.76c1.35,0.03,3.06,0.37,4.78,1.02c3.91,1.49,8.38,1.5,8.57,1.5h0.75V23.1h-0.75
	c-0.04,0-4.44-0.02-8.14-1.42c-1.22-0.46-2.67-0.86-4.05-1.03c0.48-0.47,0.98-0.92,1.5-1.35C25.62,19.46,26.33,19.66,27.05,19.93"/>
<path d="M6.5,62.81c0.51,0.17,9.32-19.66,11.36-26.78c2.03-7.12,2.54-14.23,8.98-18.13s-2.2-4.41-4.91-3.39
	c-2.71,1.02-5.42,6.1-5.76,8.98c-0.34,2.88-3.05,10.34-4.4,13.73c-1.36,3.39-5.08,17.97-5.08,17.97L6.5,62.81z"/>
<path fill="#5A5A5A" d="M30.5,56.68c-0.91-4.56-1.63-10.71-1.92-12.32c-0.59,0.78-1.15,1.43-1.61,1.82
	c-0.69,0.59-1.29,1.08-1.79,1.51c0.13-1.08,0.65-1.76,1.02-2.19c0.04-0.03,0.06-0.04,0.07-0.05l0.08-0.06
	c0.03-0.03,0.59-0.58,0.67-1.42c-0.35,0.24-0.8,0.39-1.32,0.65c-0.15,0.1-0.55,0.4-0.92,0.89c-0.71,0.84-1.2,1.99-1.28,2.85
	c-0.05,0.57,0.09,1.36,0.24,2c0.5,2.45,2.07,9.02,2.54,9.7c0.5,0.73,4.43,1,5.73,0.88C31.5,60.13,30.93,58.83,30.5,56.68"/>
<path d="M27.52,58.96c-0.16,0-0.3-0.11-0.35-0.27c-0.2-0.82-1.98-7.99-2.03-8.37c-0.04-0.32,0.22-0.64,2.12-2.63
	c1.02-1.07,2.18-2.27,2.84-3.14c1.37-1.78,3.1-5.41,3.11-5.44l0.1-0.2h5.59c0.2,0,0.36,0.16,0.36,0.36s-0.16,0.36-0.36,0.36h-5.14
	c-0.39,0.81-1.85,3.75-3.1,5.37c-0.69,0.9-1.86,2.12-2.89,3.2c-0.78,0.81-1.74,1.81-1.92,2.12c0.14,0.67,1.25,5.2,2,8.22
	c0.05,0.19-0.07,0.38-0.26,0.43C27.58,58.96,27.55,58.96,27.52,58.96"/>
<path fill="#5A5A5A" d="M33.8,56.07c0,0.68-0.55,1.23-1.23,1.23h-2.92c-0.68,0-1.23-0.55-1.23-1.23s0.55-1.23,1.23-1.23h2.92
	C33.25,54.84,33.8,55.39,33.8,56.07"/>
<path fill="none" stroke="#3C3C3C" stroke-miterlimit="10" d="M33.8,56.07c0,0.68-0.55,1.23-1.23,1.23h-2.92
	c-0.68,0-1.23-0.55-1.23-1.23s0.55-1.23,1.23-1.23h2.92C33.25,54.84,33.8,55.39,33.8,56.07z"/>
<path fill="#C8C8C8" d="M49.58,47.06c0.18,0.28,1.5,1.56,1.83,1.56c0.32,0,2.21-2.44,2.74-3.59c0.53-1.16,0.24-2.8-0.15-1.88
	c-0.38,0.92-0.59,1.68-1.5,2.6s-1.39,1.24-1.68,0.28c-0.3-0.96,0.18-1.12,0.88-1.68c0.71-0.56,1.48-1.48,1.98-2.6
	s-0.03-5.31-0.15-3.76c-0.12,1.56-0.53,1.8-0.97,2.44c-0.44,0.64-0.06,1.44-0.41,2.36c-0.35,0.92-1.71,1.12-1.77,0.84
	c-0.06-0.28-0.24-2.36-0.09-2.76c0.15-0.4,0.83-1.08,1.33-1.76c0.5-0.68,0.77,0.12,0.88-0.08c0.12-0.2,0.21-0.96,0.12-3.2
	c-0.09-2.24-0.21-5.11-2.39-6.15c-2.18-1.04-5.25-0.32-4.84-0.24c0.41,0.08,2.01-0.12,3.33,0.56c1.33,0.68,1.3,2.32,1.89,4.35
	c0.59,2.04,1.92,3.16,0.53,3.04c-0.52-0.04-0.85-0.47-1.08-0.98c-0.21-0.67-0.67-1.66-0.7-3.29c-0.04-1.88-0.51-1.65-0.5-0.77
	c0.02,1.09,0.21,1.77-1.25,2.61c-0.35,0.2-0.74,0.33-1.12,0.4c0.62,0.08,1.08,0.26,1.54,0.95c0.54,0.8,0.55,1.49,0.44,2.02
	c0.23-0.29,0.86-0.41,0.95-0.38c0.09,0.03,0.49,1.41,0.42,1.65c-0.06,0.21-1.66,0.55-1.96,0.48c-0.12,0.33-0.25,0.69-0.36,1.03
	c0.04-0.08,0.07-0.13,0.1-0.14c0.18-0.04,1.39-0.08,1.42,0.32c0.03,0.4,0,1.28-0.06,1.52c-0.04,0.16-0.22,0.41-0.63,0.74
	c-0.39,0.27-0.99,0.71-1.66,0.59c-0.12-0.02-0.23-0.06-0.33-0.1c0.03,0.02,0.07,0.04,0.14,0.08c0.61,0.3,1.18,0.98,1.82,2.07
	c-0.16-0.35-0.25-0.59-0.07-0.67c0.41-0.19,0.9,0.04,1.03,0.07C49.98,46.02,49.41,46.8,49.58,47.06"/>
<path fill="#FF0000" d="M46.51,44.09c-0.07-0.03-0.11-0.06-0.14-0.08c-0.38-0.15-0.68-0.39-0.88-0.6c-0.48-0.57-0.73-0.92-0.7-1.93
	c0.01-0.28-0.02-0.51-0.05-0.72c0.39-0.15,0.79-0.29,1.02-0.29c0.53,0,0.43,0.45,0.34,0.97c-0.09,0.52-0.19,0.88-0.19,1
	c0,0.12,0.42,0.69,0.69,0.69c0.23,0,0.71-1.58,0.95-2.05c0.11-0.33,0.24-0.69,0.36-1.02c-0.04-0.01-0.06-0.03-0.04-0.06
	c0,0,0.4-1.38,0.62-1.68c0,0,0,0,0.01,0c0.11-0.53,0.1-1.22-0.44-2.02c-0.47-0.69-0.92-0.86-1.54-0.95c-0.4,0.07-0.8,0.09-1.15,0.07
	c-0.74-0.08-1.27-0.2-1.7-0.33c-0.08-0.03-0.16-0.05-0.23-0.08c-0.28-0.11-0.63-0.26-1.05-0.43c-0.09-0.04-0.18-0.08-0.27-0.12
	c-0.24-0.1-0.49-0.18-0.71-0.21c-1.21-0.37-2.86-0.71-5.19-0.71c-4.09,0-2.85,0.83-1.3,0.86c1.55,0.03,4.81,0.2,6.13,0.81
	c0.78,0.36,1.75,0.74,2.42,0.99c0.08,0.03,0.15,0.06,0.22,0.08c0.35,0.13,0.58,0.22,0.58,0.22c0.11,0.03,0.21,0.04,0.32,0.06
	c1.03,0.27,1.79,0.32,1.94,0.46c0.26,0.24,0.5,1.68,0.32,1.92c-0.18,0.24-0.68,0.4-1,0.32c-0.33-0.08-0.41-0.44-0.62-1.08
	c-0.21-0.64-0.65-0.68-1.56-0.44c-0.92,0.24-1.83,0.2-1.83,0.2c-1.83-2.59-1.65-1.88-1.39-1.48c0.26,0.4,1.53,3.88,2.18,3.83
	c0.4-0.02,0.69,0.19,0.86,0.41c0,0.49,0.06,1.18,0.34,1.8c0.5,1.11,1.53,2.28,2.32,2.87c0.79,0.59,1.1,1.32,1.1,1.32
	s-0.02-0.28-0.15-0.71c0.15,0.25,0.29,0.57,0.51,1.06c0.58,1.27,1.24,3.57,1.47,1.87c0.15-1.1-0.43-2.11-0.73-2.75
	C47.68,45.08,47.11,44.4,46.51,44.09"/>
<path fill="#5A5A5A" d="M30.7,37.96c0,0-0.91,0.04-1.83-0.2c-0.92-0.24-1.36-0.2-1.56,0.44c-0.21,0.64-0.3,1-0.62,1.08
	c-0.33,0.08-0.83-0.08-1-0.32c-0.18-0.24,0.06-1.68,0.32-1.92c0.15-0.14,0.92-0.19,1.94-0.46c0.11-0.02,0.21-0.03,0.32-0.06
	c0,0,0.23-0.08,0.58-0.21c0.07-0.03,0.15-0.06,0.22-0.09c0.67-0.26,1.64-0.64,2.42-0.99c1.01-0.46,3.16-0.67,4.81-0.76v-0.91
	c-2.32,0-3.96,0.34-5.16,0.71c-0.22,0.03-0.47,0.11-0.71,0.21c-0.09,0.04-0.18,0.08-0.27,0.12c-0.43,0.16-0.77,0.31-1.05,0.43
	c-0.07,0.03-0.15,0.06-0.23,0.08c-0.43,0.13-0.96,0.25-1.7,0.33c-0.69,0.03-1.55-0.05-2.27-0.47c-1.46-0.84-1.27-1.52-1.25-2.61
	c0.02-0.89-0.46-1.11-0.5,0.77c-0.03,1.64-0.49,2.63-0.7,3.29c-0.23,0.51-0.56,0.94-1.08,0.98c-1.39,0.12-0.06-1,0.53-3.04
	c0.59-2.04,0.56-3.68,1.89-4.35c1.33-0.68,2.92-0.48,3.33-0.56c0.41-0.08-2.66-0.8-4.84,0.24c-2.18,1.04-2.3,3.92-2.39,6.15
	c-0.09,2.24,0,3,0.12,3.2c0.12,0.2,0.38-0.6,0.89,0.08c0.5,0.68,1.18,1.36,1.33,1.76c0.15,0.4-0.03,2.48-0.09,2.76
	c-0.06,0.28-1.42,0.08-1.77-0.84c-0.35-0.92,0.03-1.72-0.41-2.36c-0.44-0.64-0.86-0.88-0.97-2.44c-0.12-1.56-0.65,2.64-0.15,3.75
	c0.5,1.12,1.27,2.04,1.98,2.6c0.71,0.56,1.18,0.72,0.89,1.68c-0.3,0.96-0.77,0.64-1.68-0.28s-1.12-1.68-1.51-2.6
	c-0.38-0.92-0.68,0.72-0.15,1.88c0.53,1.16,2.42,3.6,2.74,3.6s1.65-1.28,1.83-1.56c0.17-0.26-0.4-1.04,0.3-1.5
	c0.13-0.03,0.62-0.26,1.03-0.07c0.49,0.23-1.04,1.73-0.81,3.43c0.23,1.7,0.89-0.6,1.47-1.87c0.22-0.49,0.36-0.81,0.51-1.06
	c-0.13,0.43-0.15,0.71-0.15,0.71s0.31-0.73,1.1-1.32c0.79-0.59,1.82-1.75,2.32-2.86c0.28-0.62,0.34-1.31,0.34-1.8
	c0.17-0.22,0.47-0.43,0.86-0.41c0.65,0.04,1.92-3.44,2.18-3.83C32.35,36.08,32.53,35.36,30.7,37.96 M22.68,39.58
	c-0.07-0.24,0.33-1.62,0.42-1.65c0.09-0.03,0.73,0.09,0.95,0.39c0.22,0.3,0.62,1.68,0.62,1.68C24.85,40.24,22.74,39.82,22.68,39.58
	 M27.74,41.48c0.03,1-0.22,1.36-0.7,1.93c-0.26,0.27-0.66,0.6-1.22,0.7c-0.67,0.12-1.26-0.32-1.66-0.59
	c-0.42-0.33-0.59-0.58-0.63-0.74c-0.06-0.24-0.09-1.12-0.06-1.52c0.03-0.4,1.24-0.36,1.42-0.32c0.18,0.04,0.78,2.18,1.05,2.18
	c0.27,0,0.69-0.57,0.69-0.69c0-0.12-0.1-0.48-0.19-1c-0.09-0.52-0.19-0.97,0.34-0.97c0.22,0,0.62,0.14,1.02,0.29
	C27.76,40.97,27.73,41.21,27.74,41.48"/>
<path fill="#5A5A5A" d="M68.46,65.12c0,0-0.35-0.35-0.97-1.05c-0.61-0.7-1.5-1.75-2.52-3.16c-1.02-1.41-2.2-3.18-3.39-5.3
	c-1.19-2.12-2.4-4.61-3.39-7.46c-1-2.83-1.87-5.96-2.8-9.24c-0.93-3.28-1.9-6.73-3.21-10.16c-1.31-3.39-3.08-6.84-5.83-9.24
	c-0.77-0.64-1.48-1.21-2.27-1.72c-0.78-0.53-1.61-1-2.46-1.41c-1.69-0.82-3.55-1.42-5.34-1.55c-0.84-0.04-1.76,0.1-2.66,0.33
	c-0.9,0.23-1.77,0.56-2.61,0.97c-1.68,0.81-3.21,1.97-4.52,3.25c-2.65,2.65-4.35,6.07-5.72,9.47c-1.35,3.42-2.4,6.85-3.38,10.11
	c-0.98,3.27-1.88,6.37-2.88,9.21c-0.98,2.83-2.2,5.34-3.39,7.46c-1.19,2.13-2.37,3.89-3.4,5.3c-1.02,1.41-1.91,2.46-2.53,3.16
	c-0.62,0.7-0.97,1.05-0.97,1.05s1.31-1.5,3.2-4.41c0.94-1.45,2.02-3.26,3.08-5.42c1.07-2.17,2.11-4.65,2.99-7.48
	c0.87-2.82,1.65-5.96,2.55-9.25c0.9-3.3,1.85-6.79,3.19-10.32c1.35-3.49,3.06-7.19,5.96-10.11c1.47-1.45,3.12-2.71,5.01-3.64
	c1.9-0.9,3.9-1.56,6.18-1.51c2.18,0.18,4.16,0.85,6.02,1.76c0.93,0.46,1.82,0.97,2.66,1.55c0.86,0.57,1.68,1.23,2.41,1.84
	c3.19,2.8,4.89,6.52,6.21,10.04c1.31,3.55,2.18,7.07,3.03,10.38c0.84,3.31,1.59,6.44,2.47,9.26c1.76,5.63,4.2,10,6.08,12.89
	C67.14,63.62,68.46,65.12,68.46,65.12"/>
</svg>
